<svg width="40" height="40" viewBox="0 0 40 40" fill="none" xmlns="http://www.w3.org/2000/svg">
<path d="M7.36094 18.5044C7.33914 18.5109 7.31813 18.519 7.29672 18.5265C7.27336 18.5346 7.25008 18.5427 7.22734 18.5519C7.20672 18.5602 7.18656 18.5694 7.16641 18.5786C7.14305 18.5892 7.11992 18.6002 7.09719 18.612C7.07914 18.6213 7.06125 18.6308 7.04352 18.6409C7.01836 18.6551 6.99383 18.6702 6.96961 18.6857C6.95523 18.6949 6.9407 18.7038 6.92672 18.7134C6.89469 18.7355 6.86375 18.7588 6.83359 18.783C6.82797 18.7876 6.82203 18.7916 6.81648 18.7962C6.78078 18.8258 6.74664 18.857 6.71375 18.8895C6.70453 18.8987 6.69602 18.9084 6.68703 18.9177C6.66414 18.9416 6.6418 18.9658 6.62047 18.9909C6.60922 19.0042 6.59852 19.0179 6.58766 19.0316C6.56984 19.0541 6.55266 19.077 6.53609 19.1005C6.52523 19.1159 6.51453 19.1313 6.50422 19.147C6.48875 19.1708 6.4743 19.1951 6.46008 19.2196C6.45086 19.2355 6.44125 19.2511 6.43266 19.2673C6.41328 19.3038 6.39531 19.341 6.37883 19.3791C6.37148 19.396 6.36523 19.4134 6.35852 19.4306C6.34734 19.4591 6.33641 19.4877 6.32688 19.517C6.32078 19.5359 6.31562 19.5551 6.31016 19.5742C6.30258 19.6011 6.29547 19.628 6.2893 19.6554C6.285 19.6745 6.28102 19.6937 6.27742 19.713C6.27172 19.7434 6.26727 19.7741 6.26344 19.8049C6.26141 19.8215 6.25883 19.8379 6.25734 19.8546C6.25289 19.9026 6.25 19.951 6.25 20C6.25 27.5818 12.4182 33.75 20 33.75C27.5469 33.75 33.6923 27.6382 33.7487 20.1044C33.7488 20.0955 33.75 20.087 33.75 20.0781C33.75 20.0662 33.7495 20.0542 33.7495 20.0423C33.7495 20.0281 33.75 20.0141 33.75 20C33.75 19.9889 33.7486 19.9781 33.7484 19.9671C33.7309 17.826 33.2104 15.6975 32.2382 13.8044C31.282 11.9425 29.8871 10.2961 28.2044 9.0432C27.5123 8.52789 26.5334 8.67117 26.018 9.36336C25.5027 10.0555 25.6459 11.0345 26.3381 11.5498C29.0527 13.5709 30.6133 16.6644 30.6245 20.0416C30.602 25.8811 25.8448 30.625 20 30.625C14.8788 30.625 10.5925 26.983 9.59445 22.1532C13.0724 23.1623 18.5669 24.6875 20 24.6875C22.5847 24.6875 24.6875 22.5847 24.6875 20C24.6875 17.4153 22.5847 15.3125 20 15.3125C18.1867 15.3125 9.87078 17.7545 7.36531 18.5029C7.36383 18.5034 7.36242 18.5039 7.36094 18.5044ZM20 18.4375C20.8616 18.4375 21.5625 19.1384 21.5625 20C21.5625 20.8616 20.8616 21.5625 20.0006 21.5625C19.3645 21.5563 16.6638 20.8848 13.4659 20.0009C16.6485 19.1227 19.3755 18.4436 20 18.4375Z" fill="#111111"/>
<path d="M34.1422 5.85781C30.3646 2.08039 25.3422 0 20 0C14.6578 0 9.63539 2.08039 5.85781 5.85781C2.08039 9.63539 0 14.6578 0 20C0 25.3422 2.08039 30.3646 5.85781 34.1422C9.63539 37.9196 14.6578 40 20 40C23.6573 40 27.2358 39.0033 30.3485 37.1177C31.0866 36.6705 31.3225 35.7098 30.8754 34.9717C30.4283 34.2336 29.4675 33.9977 28.7295 34.4448C26.105 36.0347 23.0864 36.875 20 36.875C10.6951 36.875 3.125 29.3049 3.125 20C3.125 10.6951 10.6951 3.125 20 3.125C29.3049 3.125 36.875 10.6951 36.875 20C36.875 23.3273 35.8855 26.5659 34.0135 29.3659C33.5339 30.0833 33.7266 31.0537 34.4441 31.5333C35.1614 32.0129 36.1318 31.8202 36.6114 31.1028C38.8282 27.787 40 23.9477 40 20C40 14.6578 37.9196 9.63539 34.1422 5.85781Z" fill="#111111"/>
<path d="M21.5429 9.56414C21.6191 9.57523 21.6947 9.58063 21.7695 9.58063C22.533 9.58063 23.2009 9.02031 23.3138 8.24258C23.4379 7.38859 22.8463 6.5957 21.9923 6.47164C21.337 6.37641 20.6666 6.32812 20 6.32812C19.137 6.32812 18.4375 7.02766 18.4375 7.89062C18.4375 8.75359 19.137 9.45312 20 9.45312C20.5168 9.45312 21.0359 9.49055 21.5429 9.56414Z" fill="#111111"/>
</svg>
