<svg width="40" height="24" viewBox="0 0 40 24" fill="none" xmlns="http://www.w3.org/2000/svg">
<path d="M12.579 22.5142C12.6073 23.3498 13.3323 24 14.1816 24L30.6213 24C34.0751 24 36.875 21.2432 36.8749 17.8425V17.3883C36.8749 17.3862 36.8766 17.3846 36.8787 17.3846H37.3177C38.7991 17.3846 40 16.2022 40 14.7436V9.25639C40 7.79785 38.7991 6.61539 37.3177 6.61546H36.8787C36.8766 6.61546 36.875 6.61377 36.875 6.61177V6.15754C36.875 2.75685 34.0751 1.21611e-06 30.6213 1.06514e-06L6.25375 0C2.79992 -1.50972e-07 6.59575e-07 2.75685 5.10926e-07 6.15754L0 17.8462C-1.47122e-07 21.2119 2.75851 23.9552 6.1664 23.9995C7.09398 24.0115 7.85828 23.2929 7.81039 22.3808C7.76813 21.5765 7.09851 20.9355 6.27414 20.9232C4.53836 20.8973 3.125 19.5518 3.125 17.8425L3.125 6.15754C3.125 4.45615 4.52578 3.07692 6.25367 3.07692L30.6213 3.07692C32.3492 3.07692 33.75 4.45616 33.75 6.15746V8.15016C33.75 9.00185 34.4513 9.69231 35.3162 9.69223H36.8713C36.8734 9.69223 36.875 9.69392 36.875 9.69592V14.304C36.875 14.3061 36.8733 14.3077 36.8713 14.3077H35.3162C34.4512 14.3077 33.75 14.9982 33.75 15.8498V17.8425C33.75 19.5438 32.3492 20.9231 30.6213 20.9231L14.1406 20.9231C13.2599 20.9231 12.5494 21.6405 12.579 22.5142Z" fill="#111111"/>
<path d="M15.5384 19.7656C15.5373 20.0114 15.7472 20.1573 16.0162 20.1562C16.2051 20.1555 16.4047 20.0785 16.5363 19.9454L23.7987 11.507C24.4292 10.7667 23.9201 9.60937 22.9524 9.60937H19.3962C19.3934 9.60937 19.3916 9.60617 19.3931 9.60367L22.2013 5.0057C22.2028 5.0032 22.2011 5 22.1982 5L16.7464 5L16.7432 5.00187L13.1994 11.4193C12.6202 12.468 13.3721 13.75 14.5624 13.75H17.6477C17.6502 13.75 17.652 13.7526 17.6511 13.755L15.5856 19.5696C15.5534 19.641 15.5388 19.7065 15.5384 19.7656Z" fill="#111111"/>
</svg>
