<svg width="36" height="40" viewBox="0 0 36 40" fill="none" xmlns="http://www.w3.org/2000/svg">
<path d="M36 8.67186V20.9375C36 24.3764 34.9938 27.8402 33.0903 30.9544C32.6368 31.6963 31.6507 31.9402 30.8876 31.4995C30.1245 31.0587 29.8736 30.0999 30.327 29.3581C31.9355 26.7265 32.7857 23.8148 32.7857 20.9375V9.6878L17.9229 3.27342L3.21429 9.68374V20.9375C3.21429 29.2787 10.2617 36.875 18 36.875C20.7351 36.875 23.4091 36.0059 25.7328 34.3616C26.4506 33.854 27.4557 34.0078 27.978 34.7055C28.5003 35.4033 28.342 36.3805 27.6243 36.8883C24.7474 38.924 21.4193 40 18 40C15.558 40 13.1695 39.441 10.9007 38.3385C8.78255 37.3093 6.86539 35.8566 5.2024 34.0209C1.89619 30.3712 0 25.6025 0 20.9375V8.67186C0 8.05624 0.371893 7.49795 0.949741 7.24608L17.2622 0.136702C17.6786 -0.0447826 18.1547 -0.0455639 18.5717 0.134358L35.0449 7.24374C35.6257 7.49436 36 8.05413 36 8.67186ZM24.5845 22.4238C24.4557 22.834 24.2852 23.2337 24.0777 23.6124L25.2865 25.3874C25.7083 26.0069 25.6232 26.8295 25.0828 27.3548C24.5425 27.8804 23.6964 27.963 23.0592 27.5528L21.2336 26.3777C20.8429 26.5799 20.4321 26.7454 20.011 26.8703L19.5734 28.9125C19.4181 29.6369 18.7613 30.1562 18 30.1562C17.2387 30.1562 16.5819 29.637 16.4266 28.9124L15.989 26.8702C15.5669 26.745 15.1559 26.5793 14.7664 26.3776L12.9407 27.5527C12.3035 27.9628 11.4574 27.8801 10.9171 27.3548C10.3767 26.8294 10.2916 26.0068 10.7135 25.3873L11.9222 23.6124C11.7141 23.2324 11.5439 22.833 11.4155 22.4237L9.31508 21.9984C8.56985 21.8474 8.03571 21.2088 8.03571 20.4687C8.03571 19.7287 8.56977 19.0901 9.31508 18.9391L11.4155 18.5136C11.5444 18.1033 11.7148 17.7037 11.9223 17.325L10.7135 15.5501C10.2917 14.9306 10.3768 14.108 10.9172 13.5826C11.4576 13.0572 12.3037 12.9746 12.9408 13.3847L14.7664 14.5598C15.1571 14.3576 15.5679 14.1922 15.9891 14.0673L16.4267 12.0251C16.5819 11.3005 17.2387 10.7812 18 10.7812C18.7613 10.7812 19.4181 11.3005 19.5734 12.0251L20.011 14.0672C20.4328 14.1924 20.8434 14.3579 21.2328 14.5594L22.9514 13.4028C23.5773 12.9816 24.4212 13.045 24.9729 13.5545C25.5248 14.0641 25.6334 14.8801 25.2329 15.5094L24.0912 17.3041C24.0867 17.3111 24.0823 17.318 24.0777 17.3248C24.2858 17.7048 24.4561 18.1042 24.5845 18.5137L26.6851 18.9391C27.4302 19.09 27.9643 19.7287 27.9643 20.4687C27.9643 21.2089 27.4302 21.8474 26.6849 21.9984L24.5845 22.4238ZM22.0732 20.4687C21.824 20.1652 21.6315 19.8141 21.5112 19.4293C21.4425 19.2095 21.3511 18.9951 21.2394 18.7918C21.0443 18.4364 20.9248 18.0551 20.8802 17.6686C20.4826 17.6251 20.0903 17.5091 19.7247 17.3192C19.5158 17.2108 19.2952 17.1219 19.0691 17.0551C18.6733 16.9381 18.3122 16.7509 18 16.5087C17.6878 16.7509 17.3266 16.9381 16.9308 17.0551C16.7048 17.1219 16.4842 17.2108 16.2751 17.3193C15.9096 17.5091 15.5171 17.6252 15.1196 17.6686C15.0751 18.0552 14.9557 18.4366 14.7605 18.7919C14.6489 18.9951 14.5575 19.2095 14.4888 19.4294C14.3685 19.8141 14.176 20.1652 13.9268 20.4687C14.176 20.7723 14.3685 21.1234 14.4888 21.5082C14.5574 21.7279 14.6489 21.9424 14.7606 22.1458C14.9558 22.5012 15.0753 22.8826 15.1199 23.2691C15.5178 23.3124 15.9098 23.4285 16.2754 23.6184C16.4843 23.7268 16.7049 23.8156 16.931 23.8825C17.3268 23.9994 17.6879 24.1866 18.0001 24.4288C18.3123 24.1866 18.6735 23.9994 19.0692 23.8825C19.2953 23.8157 19.5159 23.7268 19.7249 23.6183C20.0905 23.4284 20.483 23.3123 20.8805 23.2689C20.925 22.8823 21.0444 22.5009 21.2396 22.1455C21.3511 21.9423 21.4426 21.7278 21.5113 21.5082C21.6315 21.1234 21.824 20.7723 22.0732 20.4687ZM18 18.9062C17.1124 18.9062 16.3929 19.6058 16.3929 20.4687C16.3929 21.3317 17.1124 22.0312 18 22.0312C18.8876 22.0312 19.6071 21.3317 19.6071 20.4687C19.6071 19.6058 18.8876 18.9062 18 18.9062Z" fill="#111111"/>
</svg>
