<svg width="29" height="40" viewBox="0 0 29 40" fill="none" xmlns="http://www.w3.org/2000/svg">
<path d="M25.4826 25.947V6.25C25.4826 4.52698 24.0969 3.125 22.3938 3.125H6.17761C4.47454 3.125 3.0888 4.52698 3.0888 6.25V33.75C3.0888 35.473 4.47454 36.875 6.17761 36.875H22.3938C24.0969 36.875 25.4826 35.473 25.4826 33.75C25.4826 32.887 26.174 32.1875 27.027 32.1875C27.8801 32.1875 28.5714 32.887 28.5714 33.75C28.5714 37.1964 25.8003 40 22.3938 40H6.17761C2.77118 40 0 37.1964 0 33.75V6.25C0 2.80365 2.77118 0 6.17761 0H22.3938C25.8003 0 28.5714 2.80365 28.5714 6.25V25.947C28.5714 26.81 27.8801 27.5095 27.027 27.5095C26.174 27.5095 25.4826 26.81 25.4826 25.947ZM12.7413 32.9001C12.7413 33.7631 13.4327 34.4626 14.2857 34.4626C15.1388 34.4626 15.8301 33.7631 15.8301 32.9001C15.8301 32.037 15.1388 31.3376 14.2857 31.3376C13.4327 31.3376 12.7413 32.037 12.7413 32.9001ZM15.8301 8.68134C16.6832 8.68134 17.3745 7.98187 17.3745 7.11884C17.3745 6.2558 16.6832 5.55634 15.8301 5.55634H12.7413C11.8883 5.55634 11.1969 6.2558 11.1969 7.11884C11.1969 7.98187 11.8883 8.68134 12.7413 8.68134H15.8301ZM21.2355 27.9001C22.0886 27.9001 22.7799 27.2006 22.7799 26.3376V16.8063C22.7799 15.9433 22.0886 15.2438 21.2355 15.2438C20.3825 15.2438 19.6911 15.9433 19.6911 16.8063V24.7751H18.1467V13.6813C18.1467 12.8183 17.4554 12.1188 16.6023 12.1188C15.7493 12.1188 15.0579 12.8183 15.0579 13.6813V24.7751H13.5135V19.9313C13.5135 19.0683 12.8222 18.3688 11.9691 18.3688C11.1161 18.3688 10.4247 19.0683 10.4247 19.9313V24.7751H8.88031V16.8063C8.88031 15.9433 8.18895 15.2438 7.33591 15.2438C6.48287 15.2438 5.79151 15.9433 5.79151 16.8063V26.3376C5.79151 27.2006 6.48287 27.9001 7.33591 27.9001H21.2355Z" fill="#111111"/>
</svg>
