<svg width="40" height="40" viewBox="0 0 40 40" fill="none" xmlns="http://www.w3.org/2000/svg">
<rect width="40" height="40" rx="10" fill="white"/>
<path d="M33.7415 26.271C33.6636 26.1448 33.1814 25.1317 30.8612 23.0494C28.4323 20.869 28.7586 21.2231 31.6842 17.4529C33.466 15.1568 34.1784 13.7546 33.9554 13.1552C33.7433 12.5838 32.4328 12.7345 32.4328 12.7345L28.0752 12.7591C28.0752 12.7591 27.7526 12.717 27.5115 12.8555C27.2777 12.9922 27.1272 13.3077 27.1272 13.3077C27.1272 13.3077 26.4366 15.085 25.5158 16.5958C23.5745 19.7841 22.7968 19.9523 22.4796 19.7543C21.7419 19.2933 21.9268 17.8999 21.9268 16.9113C21.9268 13.8213 22.4107 12.533 20.9824 12.2C20.5075 12.0895 20.1595 12.0159 18.9468 12.0037C17.3916 11.9879 16.0738 12.0089 15.3288 12.3612C14.8321 12.5961 14.4497 13.1202 14.6835 13.1499C14.9717 13.1868 15.6242 13.32 15.9705 13.7757C16.4182 14.3628 16.4019 15.6844 16.4019 15.6844C16.4019 15.6844 16.6593 19.3214 15.8019 19.7736C15.2128 20.0838 14.4062 19.4511 12.6751 16.5573C11.7887 15.0762 11.118 13.4374 11.118 13.4374C11.118 13.4374 10.9893 13.1324 10.7591 12.9694C10.48 12.7714 10.0885 12.7083 10.0885 12.7083L5.94479 12.7328C5.94479 12.7328 5.32305 12.7503 5.09466 13.0115C4.89165 13.2446 5.07835 13.7248 5.07835 13.7248C5.07835 13.7248 8.32296 21.0636 11.9954 24.7636C15.365 28.1552 19.1897 27.9326 19.1897 27.9326H20.9226C20.9226 27.9326 21.4464 27.8765 21.7129 27.5978C21.9594 27.3419 21.9503 26.8617 21.9503 26.8617C21.9503 26.8617 21.9159 24.6129 22.9962 24.2816C24.0602 23.9556 25.427 26.455 26.8753 27.4173C27.9701 28.1447 28.8021 27.9852 28.8021 27.9852L32.6757 27.9326C32.6757 27.9326 34.7022 27.8117 33.7415 26.271Z" fill="#111111"/>
</svg>
