<svg width="160" height="21" viewBox="0 0 160 21" fill="none" xmlns="http://www.w3.org/2000/svg">
<path d="M4.475 20H0.75V6.85H4.475V20ZM4.825 3.05C4.825 3.73333 4.6 4.275 4.15 4.675C3.71667 5.05833 3.2 5.25 2.6 5.25C2 5.25 1.475 5.05833 1.025 4.675C0.591667 4.275 0.375 3.73333 0.375 3.05C0.375 2.36667 0.591667 1.83333 1.025 1.45C1.475 1.05 2 0.849999 2.6 0.849999C3.2 0.849999 3.71667 1.05 4.15 1.45C4.6 1.83333 4.825 2.36667 4.825 3.05ZM7.97656 7.3C8.6099 7.11667 9.42656 6.95 10.4266 6.8C11.4266 6.63333 12.4766 6.55 13.5766 6.55C14.6932 6.55 15.6182 6.7 16.3516 7C17.1016 7.28333 17.6932 7.69167 18.1266 8.225C18.5599 8.75833 18.8682 9.39167 19.0516 10.125C19.2349 10.8583 19.3266 11.675 19.3266 12.575V20H15.6016V13.025C15.6016 11.825 15.4432 10.975 15.1266 10.475C14.8099 9.975 14.2182 9.725 13.3516 9.725C13.0849 9.725 12.8016 9.74167 12.5016 9.775C12.2016 9.79167 11.9349 9.81667 11.7016 9.85V20H7.97656V7.3ZM22.5732 3.575L26.2982 2.975V6.85H30.7732V9.95H26.2982V14.575C26.2982 15.3583 26.4316 15.9833 26.6982 16.45C26.9816 16.9167 27.5399 17.15 28.3732 17.15C28.7732 17.15 29.1816 17.1167 29.5982 17.05C30.0316 16.9667 30.4232 16.8583 30.7732 16.725L31.2982 19.625C30.8482 19.8083 30.3482 19.9667 29.7982 20.1C29.2482 20.2333 28.5732 20.3 27.7732 20.3C26.7566 20.3 25.9149 20.1667 25.2482 19.9C24.5816 19.6167 24.0482 19.2333 23.6482 18.75C23.2482 18.25 22.9649 17.65 22.7982 16.95C22.6482 16.25 22.5732 15.475 22.5732 14.625V3.575ZM32.6934 13.525C32.6934 12.3583 32.8684 11.3417 33.2184 10.475C33.585 9.59167 34.06 8.85833 34.6434 8.275C35.2267 7.69167 35.8934 7.25 36.6434 6.95C37.41 6.65 38.1934 6.5 38.9934 6.5C40.86 6.5 42.335 7.075 43.4184 8.225C44.5017 9.35833 45.0434 11.0333 45.0434 13.25C45.0434 13.4667 45.035 13.7083 45.0184 13.975C45.0017 14.225 44.985 14.45 44.9684 14.65H36.5184C36.6017 15.4167 36.96 16.025 37.5934 16.475C38.2267 16.925 39.0767 17.15 40.1434 17.15C40.8267 17.15 41.4934 17.0917 42.1434 16.975C42.81 16.8417 43.3517 16.6833 43.7684 16.5L44.2684 19.525C44.0684 19.625 43.8017 19.725 43.4684 19.825C43.135 19.925 42.76 20.0083 42.3434 20.075C41.9434 20.1583 41.51 20.225 41.0434 20.275C40.5767 20.325 40.11 20.35 39.6434 20.35C38.46 20.35 37.4267 20.175 36.5434 19.825C35.6767 19.475 34.9517 19 34.3684 18.4C33.8017 17.7833 33.3767 17.0583 33.0934 16.225C32.8267 15.3917 32.6934 14.4917 32.6934 13.525ZM41.4434 12.1C41.4267 11.7833 41.3684 11.475 41.2684 11.175C41.185 10.875 41.0434 10.6083 40.8434 10.375C40.66 10.1417 40.4184 9.95 40.1184 9.8C39.835 9.65 39.4767 9.575 39.0434 9.575C38.6267 9.575 38.2684 9.65 37.9684 9.8C37.6684 9.93333 37.4184 10.1167 37.2184 10.35C37.0184 10.5833 36.86 10.8583 36.7434 11.175C36.6434 11.475 36.5684 11.7833 36.5184 12.1H41.4434ZM55.843 10.15C55.5096 10.0667 55.118 9.98333 54.668 9.9C54.218 9.8 53.7346 9.75 53.218 9.75C52.9846 9.75 52.7013 9.775 52.368 9.825C52.0513 9.85833 51.8096 9.9 51.643 9.95V20H47.918V7.55C48.5846 7.31667 49.368 7.1 50.268 6.9C51.1846 6.68333 52.2013 6.575 53.318 6.575C53.518 6.575 53.7596 6.59167 54.043 6.625C54.3263 6.64167 54.6096 6.675 54.893 6.725C55.1763 6.75833 55.4596 6.80833 55.743 6.875C56.0263 6.925 56.268 6.99167 56.468 7.075L55.843 10.15ZM63.2457 17.4C63.6124 17.4 63.9624 17.3917 64.2957 17.375C64.629 17.3583 64.8957 17.3333 65.0957 17.3V14.475C64.9457 14.4417 64.7207 14.4083 64.4207 14.375C64.1207 14.3417 63.8457 14.325 63.5957 14.325C63.2457 14.325 62.9124 14.35 62.5957 14.4C62.2957 14.4333 62.029 14.5083 61.7957 14.625C61.5624 14.7417 61.379 14.9 61.2457 15.1C61.1124 15.3 61.0457 15.55 61.0457 15.85C61.0457 16.4333 61.2374 16.8417 61.6207 17.075C62.0207 17.2917 62.5624 17.4 63.2457 17.4ZM62.9457 6.5C64.0457 6.5 64.9624 6.625 65.6957 6.875C66.429 7.125 67.0124 7.48333 67.4457 7.95C67.8957 8.41667 68.2124 8.98333 68.3957 9.65C68.579 10.3167 68.6707 11.0583 68.6707 11.875V19.625C68.1374 19.7417 67.3957 19.875 66.4457 20.025C65.4957 20.1917 64.3457 20.275 62.9957 20.275C62.1457 20.275 61.3707 20.2 60.6707 20.05C59.9874 19.9 59.3957 19.6583 58.8957 19.325C58.3957 18.975 58.0124 18.525 57.7457 17.975C57.479 17.425 57.3457 16.75 57.3457 15.95C57.3457 15.1833 57.4957 14.5333 57.7957 14C58.1124 13.4667 58.529 13.0417 59.0457 12.725C59.5624 12.4083 60.154 12.1833 60.8207 12.05C61.4874 11.9 62.179 11.825 62.8957 11.825C63.379 11.825 63.804 11.85 64.1707 11.9C64.554 11.9333 64.8624 11.9833 65.0957 12.05V11.7C65.0957 11.0667 64.904 10.5583 64.5207 10.175C64.1374 9.79167 63.4707 9.6 62.5207 9.6C61.8874 9.6 61.2624 9.65 60.6457 9.75C60.029 9.83333 59.4957 9.95833 59.0457 10.125L58.5707 7.125C58.7874 7.05833 59.054 6.99167 59.3707 6.925C59.704 6.84167 60.0624 6.775 60.4457 6.725C60.829 6.65833 61.229 6.60833 61.6457 6.575C62.079 6.525 62.5124 6.5 62.9457 6.5ZM71.4141 13.425C71.4141 12.475 71.5641 11.5833 71.8641 10.75C72.1807 9.9 72.6307 9.16667 73.2141 8.55C73.7974 7.91667 74.5057 7.41667 75.3391 7.05C76.1724 6.68333 77.1224 6.5 78.1891 6.5C78.8891 6.5 79.5307 6.56667 80.1141 6.7C80.6974 6.81667 81.2641 6.99167 81.8141 7.225L81.0391 10.2C80.6891 10.0667 80.3057 9.95 79.8891 9.85C79.4724 9.75 79.0057 9.7 78.4891 9.7C77.3891 9.7 76.5641 10.0417 76.0141 10.725C75.4807 11.4083 75.2141 12.3083 75.2141 13.425C75.2141 14.6083 75.4641 15.525 75.9641 16.175C76.4807 16.825 77.3724 17.15 78.6391 17.15C79.0891 17.15 79.5724 17.1083 80.0891 17.025C80.6057 16.9417 81.0807 16.8083 81.5141 16.625L82.0391 19.675C81.6057 19.8583 81.0641 20.0167 80.4141 20.15C79.7641 20.2833 79.0474 20.35 78.2641 20.35C77.0641 20.35 76.0307 20.175 75.1641 19.825C74.2974 19.4583 73.5807 18.9667 73.0141 18.35C72.4641 17.7333 72.0557 17.0083 71.7891 16.175C71.5391 15.325 71.4141 14.4083 71.4141 13.425ZM84.4141 3.575L88.1391 2.975V6.85H92.6141V9.95H88.1391V14.575C88.1391 15.3583 88.2724 15.9833 88.5391 16.45C88.8224 16.9167 89.3807 17.15 90.2141 17.15C90.6141 17.15 91.0224 17.1167 91.4391 17.05C91.8724 16.9667 92.2641 16.8583 92.6141 16.725L93.1391 19.625C92.6891 19.8083 92.1891 19.9667 91.6391 20.1C91.0891 20.2333 90.4141 20.3 89.6141 20.3C88.5974 20.3 87.7557 20.1667 87.0891 19.9C86.4224 19.6167 85.8891 19.2333 85.4891 18.75C85.0891 18.25 84.8057 17.65 84.6391 16.95C84.4891 16.25 84.4141 15.475 84.4141 14.625V3.575ZM99.3725 20H95.6475V6.85H99.3725V20ZM99.7225 3.05C99.7225 3.73333 99.4975 4.275 99.0475 4.675C98.6141 5.05833 98.0975 5.25 97.4975 5.25C96.8975 5.25 96.3725 5.05833 95.9225 4.675C95.4891 4.275 95.2725 3.73333 95.2725 3.05C95.2725 2.36667 95.4891 1.83333 95.9225 1.45C96.3725 1.05 96.8975 0.849999 97.4975 0.849999C98.0975 0.849999 98.6141 1.05 99.0475 1.45C99.4975 1.83333 99.7225 2.36667 99.7225 3.05ZM106.058 20C105.208 18.3333 104.342 16.3833 103.458 14.15C102.592 11.9167 101.767 9.48333 100.983 6.85H104.933C105.1 7.5 105.292 8.20833 105.508 8.975C105.742 9.725 105.975 10.4917 106.208 11.275C106.458 12.0417 106.7 12.7917 106.933 13.525C107.183 14.2583 107.425 14.925 107.658 15.525C107.875 14.925 108.108 14.2583 108.358 13.525C108.608 12.7917 108.85 12.0417 109.083 11.275C109.333 10.4917 109.567 9.725 109.783 8.975C110.017 8.20833 110.217 7.5 110.383 6.85H114.233C113.45 9.48333 112.617 11.9167 111.733 14.15C110.867 16.3833 110.008 18.3333 109.158 20H106.058ZM115.262 13.525C115.262 12.3583 115.437 11.3417 115.787 10.475C116.153 9.59167 116.628 8.85833 117.212 8.275C117.795 7.69167 118.462 7.25 119.212 6.95C119.978 6.65 120.762 6.5 121.562 6.5C123.428 6.5 124.903 7.075 125.987 8.225C127.07 9.35833 127.612 11.0333 127.612 13.25C127.612 13.4667 127.603 13.7083 127.587 13.975C127.57 14.225 127.553 14.45 127.537 14.65H119.087C119.17 15.4167 119.528 16.025 120.162 16.475C120.795 16.925 121.645 17.15 122.712 17.15C123.395 17.15 124.062 17.0917 124.712 16.975C125.378 16.8417 125.92 16.6833 126.337 16.5L126.837 19.525C126.637 19.625 126.37 19.725 126.037 19.825C125.703 19.925 125.328 20.0083 124.912 20.075C124.512 20.1583 124.078 20.225 123.612 20.275C123.145 20.325 122.678 20.35 122.212 20.35C121.028 20.35 119.995 20.175 119.112 19.825C118.245 19.475 117.52 19 116.937 18.4C116.37 17.7833 115.945 17.0583 115.662 16.225C115.395 15.3917 115.262 14.4917 115.262 13.525ZM124.012 12.1C123.995 11.7833 123.937 11.475 123.837 11.175C123.753 10.875 123.612 10.6083 123.412 10.375C123.228 10.1417 122.987 9.95 122.687 9.8C122.403 9.65 122.045 9.575 121.612 9.575C121.195 9.575 120.837 9.65 120.537 9.8C120.237 9.93333 119.987 10.1167 119.787 10.35C119.587 10.5833 119.428 10.8583 119.312 11.175C119.212 11.475 119.137 11.7833 119.087 12.1H124.012ZM134.136 18.025C134.136 18.775 133.895 19.35 133.411 19.75C132.945 20.1333 132.411 20.325 131.811 20.325C131.211 20.325 130.67 20.1333 130.186 19.75C129.72 19.35 129.486 18.775 129.486 18.025C129.486 17.275 129.72 16.7083 130.186 16.325C130.67 15.925 131.211 15.725 131.811 15.725C132.411 15.725 132.945 15.925 133.411 16.325C133.895 16.7083 134.136 17.275 134.136 18.025ZM140.414 17.325C141.097 17.325 141.58 17.2583 141.864 17.125C142.147 16.9917 142.289 16.7333 142.289 16.35C142.289 16.05 142.105 15.7917 141.739 15.575C141.372 15.3417 140.814 15.0833 140.064 14.8C139.48 14.5833 138.947 14.3583 138.464 14.125C137.997 13.8917 137.597 13.6167 137.264 13.3C136.93 12.9667 136.672 12.575 136.489 12.125C136.305 11.675 136.214 11.1333 136.214 10.5C136.214 9.26667 136.672 8.29167 137.589 7.575C138.505 6.85833 139.764 6.5 141.364 6.5C142.164 6.5 142.93 6.575 143.664 6.725C144.397 6.85833 144.98 7.00833 145.414 7.175L144.764 10.075C144.33 9.925 143.855 9.79167 143.339 9.675C142.839 9.55833 142.272 9.5 141.639 9.5C140.472 9.5 139.889 9.825 139.889 10.475C139.889 10.625 139.914 10.7583 139.964 10.875C140.014 10.9917 140.114 11.1083 140.264 11.225C140.414 11.325 140.614 11.4417 140.864 11.575C141.13 11.6917 141.464 11.825 141.864 11.975C142.68 12.275 143.355 12.575 143.889 12.875C144.422 13.1583 144.839 13.475 145.139 13.825C145.455 14.1583 145.672 14.5333 145.789 14.95C145.922 15.3667 145.989 15.85 145.989 16.4C145.989 17.7 145.497 18.6833 144.514 19.35C143.547 20.0167 142.172 20.35 140.389 20.35C139.222 20.35 138.247 20.25 137.464 20.05C136.697 19.85 136.164 19.6833 135.864 19.55L136.489 16.525C137.122 16.775 137.772 16.975 138.439 17.125C139.105 17.2583 139.764 17.325 140.414 17.325ZM159.997 19.55C159.364 19.7333 158.547 19.9 157.547 20.05C156.547 20.2167 155.497 20.3 154.397 20.3C153.281 20.3 152.347 20.15 151.597 19.85C150.864 19.55 150.281 19.1333 149.847 18.6C149.414 18.05 149.106 17.4 148.922 16.65C148.739 15.9 148.647 15.075 148.647 14.175V6.85H152.372V13.725C152.372 14.925 152.531 15.7917 152.847 16.325C153.164 16.8583 153.756 17.125 154.622 17.125C154.889 17.125 155.172 17.1167 155.472 17.1C155.772 17.0667 156.039 17.0333 156.272 17V6.85H159.997V19.55Z" fill="white"/>
</svg>
