<svg width="129" height="20" viewBox="0 0 129 20" fill="none" xmlns="http://www.w3.org/2000/svg">
<path d="M0.131949 19.6964V5.54455H3.98487V19.6964H0.131949ZM3.52305 3.40594C3.1272 3.79318 2.63899 3.9868 2.05841 3.9868C1.47783 3.9868 0.98962 3.79318 0.593772 3.40594C0.197924 3.0187 0 2.54785 0 1.9934C0 1.43014 0.197924 0.959296 0.593772 0.580858C0.98962 0.193619 1.47783 0 2.05841 0C2.63899 0 3.1272 0.193619 3.52305 0.580858C3.91889 0.959296 4.11682 1.43014 4.11682 1.9934C4.11682 2.54785 3.91889 3.0187 3.52305 3.40594Z" fill="white"/>
<path d="M6.55788 19.6964V5.54455H10.2789V8.06601H10.358C10.7451 7.16832 11.3081 6.48185 12.047 6.0066C12.7947 5.52255 13.7051 5.28053 14.7783 5.28053C16.3441 5.28053 17.5537 5.74697 18.4069 6.67987C19.2602 7.61276 19.6868 8.91089 19.6868 10.5743V19.6964H15.8339V11.3795C15.8339 10.4466 15.614 9.72937 15.1742 9.22772C14.7343 8.72607 14.0878 8.47525 13.2345 8.47525C12.3812 8.47525 11.6951 8.76128 11.1761 9.33333C10.6659 9.90539 10.4108 10.6535 10.4108 11.5776V19.6964H6.55788Z" fill="white"/>
<path d="M23.1571 2.28383H27.01V5.54455H29.6226V8.44884H27.01V15.2211C27.01 16.286 27.5642 16.8185 28.6726 16.8185C29.0333 16.8185 29.3455 16.7965 29.6094 16.7525V19.5908C29.1608 19.6964 28.5494 19.7492 27.7753 19.7492C26.1128 19.7492 24.9252 19.4499 24.2127 18.8515C23.509 18.253 23.1571 17.2629 23.1571 15.8812V8.44884H21.1647V5.54455H23.1571V2.28383Z" fill="white"/>
<path d="M37.8695 8.09241C37.0338 8.09241 36.3344 8.37844 35.7715 8.9505C35.2173 9.52255 34.905 10.253 34.8346 11.1419H40.8383C40.7943 10.2354 40.4996 9.50055 39.9543 8.93729C39.4177 8.37404 38.7227 8.09241 37.8695 8.09241ZM40.8911 15.3663H44.4273C44.2162 16.7569 43.5213 17.879 42.3425 18.7327C41.1726 19.5776 39.7167 20 37.975 20C35.8023 20 34.0957 19.3487 32.8554 18.0462C31.6239 16.7437 31.0081 14.9571 31.0081 12.6865C31.0081 10.4246 31.6239 8.62046 32.8554 7.27393C34.0869 5.91859 35.7451 5.24092 37.8299 5.24092C39.8795 5.24092 41.5113 5.88339 42.7252 7.16832C43.9391 8.45325 44.5461 10.1738 44.5461 12.33V13.505H34.795V13.7426C34.795 14.7547 35.0897 15.5776 35.6791 16.2112C36.2773 16.8361 37.0646 17.1485 38.041 17.1485C38.7447 17.1485 39.3517 16.9901 39.8619 16.6733C40.3721 16.3476 40.7152 15.912 40.8911 15.3663Z" fill="white"/>
<path d="M46.5385 19.6964V5.54455H50.2595V8.09241H50.3387C50.585 7.19472 50.9984 6.50825 51.579 6.033C52.1596 5.55776 52.8677 5.32013 53.7034 5.32013C54.108 5.32013 54.4731 5.36854 54.7986 5.46535V8.85809C54.4379 8.70847 53.9717 8.63366 53.3999 8.63366C52.4499 8.63366 51.7109 8.91089 51.1831 9.46535C50.6554 10.0198 50.3914 10.7943 50.3914 11.7888V19.6964H46.5385Z" fill="white"/>
<path d="M61.5016 17.1353C62.3549 17.1353 63.0762 16.8889 63.6656 16.396C64.2637 15.8944 64.5628 15.2651 64.5628 14.5083V13.4785L61.5807 13.6634C60.8594 13.7162 60.3008 13.8966 59.905 14.2046C59.5179 14.5127 59.3244 14.9175 59.3244 15.4191C59.3244 15.9472 59.5223 16.3652 59.9182 16.6733C60.314 16.9813 60.8418 17.1353 61.5016 17.1353ZM60.2349 19.9208C58.8714 19.9208 57.741 19.5204 56.8438 18.7195C55.9465 17.9186 55.4979 16.8889 55.4979 15.6304C55.4979 14.3454 55.9729 13.3377 56.9229 12.6073C57.873 11.8768 59.2321 11.4587 61.0002 11.3531L64.5628 11.1419V10.2046C64.5628 9.55336 64.3473 9.0429 63.9163 8.67327C63.494 8.30363 62.9178 8.11881 62.1877 8.11881C61.484 8.11881 60.9078 8.27723 60.4592 8.59406C60.0193 8.91089 59.7511 9.33773 59.6543 9.87459H56.1312C56.2016 8.48405 56.7954 7.36634 57.9126 6.52145C59.0297 5.66777 60.512 5.24092 62.3593 5.24092C64.1714 5.24092 65.6228 5.67217 66.7136 6.53465C67.8044 7.39714 68.3498 8.54125 68.3498 9.967V19.6964H64.6288V17.5314H64.5496C64.1626 18.2706 63.5732 18.8559 62.7815 19.2871C61.9898 19.7096 61.1409 19.9208 60.2349 19.9208Z" fill="white"/>
<path d="M83.6955 10.8119H80.1196C80.0053 10.0462 79.7018 9.43014 79.2092 8.9637C78.7254 8.49725 78.0964 8.26403 77.3223 8.26403C76.3635 8.26403 75.607 8.65126 75.0528 9.42574C74.5074 10.1914 74.2347 11.2519 74.2347 12.6073C74.2347 13.989 74.5074 15.0627 75.0528 15.8284C75.607 16.5941 76.3679 16.9769 77.3355 16.9769C78.1008 16.9769 78.7254 16.7613 79.2092 16.33C79.693 15.89 79.9965 15.2827 80.1196 14.5083H83.7087C83.6119 16.1804 82.9829 17.5138 81.8218 18.5083C80.6606 19.5028 79.152 20 77.2959 20C75.1495 20 73.4518 19.3443 72.2027 18.033C70.9536 16.7129 70.329 14.9043 70.329 12.6073C70.329 10.3454 70.9536 8.55446 72.2027 7.23432C73.4606 5.90539 75.1495 5.24092 77.2695 5.24092C79.152 5.24092 80.6694 5.76018 81.8218 6.79868C82.9829 7.83718 83.6075 9.17492 83.6955 10.8119Z" fill="white"/>
<path d="M86.5984 2.28383H90.4513V5.54455H93.0639V8.44884H90.4513V15.2211C90.4513 16.286 91.0054 16.8185 92.1138 16.8185C92.4745 16.8185 92.7868 16.7965 93.0507 16.7525V19.5908C92.602 19.6964 91.9907 19.7492 91.2166 19.7492C89.554 19.7492 88.3665 19.4499 87.6539 18.8515C86.9502 18.253 86.5984 17.2629 86.5984 15.8812V8.44884H84.6059V5.54455H86.5984V2.28383Z" fill="white"/>
<path d="M95.241 19.6964V5.54455H99.0939V19.6964H95.241ZM98.6321 3.40594C98.2363 3.79318 97.7481 3.9868 97.1675 3.9868C96.5869 3.9868 96.0987 3.79318 95.7029 3.40594C95.307 3.0187 95.1091 2.54785 95.1091 1.9934C95.1091 1.43014 95.307 0.959296 95.7029 0.580858C96.0987 0.193619 96.5869 0 97.1675 0C97.7481 0 98.2363 0.193619 98.6321 0.580858C99.028 0.959296 99.2259 1.43014 99.2259 1.9934C99.2259 2.54785 99.028 3.0187 98.6321 3.40594Z" fill="white"/>
<path d="M114.598 5.54455L109.742 19.6964H105.388L100.493 5.54455H104.623L107.565 16.2904H107.644L110.574 5.54455H114.598Z" fill="white"/>
<path d="M121.895 8.09241C121.059 8.09241 120.36 8.37844 119.797 8.9505C119.243 9.52255 118.93 10.253 118.86 11.1419H124.864C124.82 10.2354 124.525 9.50055 123.98 8.93729C123.443 8.37404 122.748 8.09241 121.895 8.09241ZM124.916 15.3663H128.453C128.242 16.7569 127.547 17.879 126.368 18.7327C125.198 19.5776 123.742 20 122 20C119.828 20 118.121 19.3487 116.881 18.0462C115.649 16.7437 115.033 14.9571 115.033 12.6865C115.033 10.4246 115.649 8.62046 116.881 7.27393C118.112 5.91859 119.77 5.24092 121.855 5.24092C123.905 5.24092 125.537 5.88339 126.751 7.16832C127.964 8.45325 128.571 10.1738 128.571 12.33V13.505H118.82V13.7426C118.82 14.7547 119.115 15.5776 119.704 16.2112C120.303 16.8361 121.09 17.1485 122.066 17.1485C122.77 17.1485 123.377 16.9901 123.887 16.6733C124.397 16.3476 124.741 15.912 124.916 15.3663Z" fill="white"/>
</svg>
