<svg width="272" height="57" viewBox="0 0 272 57" fill="none" xmlns="http://www.w3.org/2000/svg">
<path d="M272 28.5L262.931 37.5561V48.6098H250.47L244.076 57H26.6846L33.0784 48.6098H45.5399V37.5561L55.6527 28.5L45.8009 21.9743V9.25584H35.5577L26.6846 0H244.076L252.949 9.25584H263.192V21.9743L272 28.5Z" fill="url(#paint0_linear)"/>
<path d="M20.4212 15.9813H12.0701V16.847L12.853 16.0479L14.8755 18.3119L15.3322 17.9124L23.9444 27.3014V14.9159H24.5316V11.986H26.4236L24.5968 10.0549L20.4212 15.9813Z" fill="#1F71B8"/>
<path d="M10.8304 14.7161H19.834L24.4663 8.12384L28.1199 11.986H32.3608L24.5316 3.79557L18.9206 11.7196H7.95972V20.9089L10.8304 18.0456V14.7161Z" fill="#1F71B8"/>
<path d="M28.6417 41.8178H37.0581V40.9521L36.2752 41.6846L34.2527 39.4206L33.796 39.8867L25.1838 30.4977V42.8832H24.5314V45.8131H22.7046L24.4662 47.6776L28.6417 41.8178Z" fill="#3AAA35"/>
<path d="M38.2327 43.0829H29.2943L24.5968 49.6086L20.9432 45.8131H16.7676L24.5316 53.9369L30.1425 46.0128H41.1686V36.8236L38.2327 39.7535V43.0829Z" fill="#3AAA35"/>
<path d="M11.8742 33.0946V41.618H12.7224L12.0047 40.8855L14.223 38.7547L13.7663 38.2885L23.0309 29.4988H10.8303V28.8995H7.95963V26.9685L6.13281 28.8329L11.8742 33.0946Z" fill="#E40D7E"/>
<path d="M10.6999 42.8832V33.6939L4.24083 28.9661L7.9597 25.2372V20.9089L0 28.8995L7.76397 34.6262V45.8131H16.7676L13.9621 42.8832H10.6999Z" fill="#E40D7E"/>
<path d="M8.74264 24.4381V26.1694L7.95972 26.9685V28.8996H10.8304V18.0456L7.95972 20.9089V25.2372L8.74264 24.4381Z" fill="#662681"/>
<path d="M12.0701 16.847V28.2337H23.1615L15.267 19.6437L14.1579 20.7757V19.0444L14.8755 18.3119L12.853 16.0479L12.0701 16.847Z" fill="#662681"/>
<path d="M12.7223 41.618H16.8979H18.6595H18.8552H23.9442V30.2979L15.5278 38.3551L16.6369 39.4871H14.8754L14.2229 38.7547L12.0046 40.8855L12.7223 41.618Z" fill="#BE1823"/>
<path d="M20.1603 45.014H21.9219L22.7048 45.8131H24.5316V42.8832H13.9622L16.7676 45.8131H20.9432L20.1603 45.014Z" fill="#BE1823"/>
<path d="M41.3644 23.1729V11.986H32.3608L35.1663 14.9159H38.4285V24.0385L44.8876 28.8329L41.1687 32.5619V36.8236L49.1284 28.8995L41.3644 23.1729Z" fill="#F8B133"/>
<path d="M37.1888 24.7044V16.1811H36.4059L37.1236 16.9135L34.9053 18.9778L35.362 19.4439L26.0974 28.2336H38.2327V28.8995H41.1686V30.8306L42.9955 28.9661L37.1888 24.7044Z" fill="#F8B133"/>
<path d="M36.406 16.1811H32.2304H30.4688H30.2731H25.1841V27.4346L33.6005 19.4439L32.4914 18.3119H34.2529L34.9054 18.9778L37.1236 16.9135L36.406 16.1811Z" fill="#056734"/>
<path d="M28.9028 12.785H27.2065L26.4236 11.986H24.5315V14.9159H35.1662L32.3607 11.986H28.1199L28.9028 12.785Z" fill="#056734"/>
<path d="M37.0582 40.9521V29.4988H25.9668L33.8613 38.0888L34.9704 37.0234V38.7547L34.2527 39.4206L36.2753 41.6846L37.0582 40.9521Z" fill="#008E39"/>
<path d="M40.3204 33.361V31.5631L41.1686 30.8306V28.8995H38.2327V39.7535L41.1686 36.8236V32.5619L40.3204 33.361Z" fill="#008E39"/>
<path d="M66.2873 43.6156H60.0239V14.5829H66.2873V43.6156Z" fill="white"/>
<path d="M78.1618 28.0339H78.6837L77.8356 18.1787V14.5829H83.6422V43.6822H76.9874L74.0514 30.2979H73.5947L74.3777 40.0864V43.6822H68.6362V14.5829H75.2911L78.1618 28.0339Z" fill="white"/>
<path d="M88.7961 21.9077H85.012V14.5829H99.0393V18.1787L98.0606 21.9077H95.0594V43.6822H88.7961V21.9077Z" fill="white"/>
<path d="M113.915 43.6156H100.475V14.5829H113.915V18.1787L112.936 21.9077H106.803V25.1705H112.936V32.4287H106.803V36.4241H113.98V43.6156H113.915Z" fill="white"/>
<path d="M115.677 14.5829H128.203C128.921 14.5829 129.508 14.9159 129.965 15.5818C130.422 16.2476 130.683 17.1133 130.683 18.1787V29.632C130.683 30.2979 130.552 30.9638 130.226 31.6297C129.9 32.2955 129.508 32.6951 129.051 32.8948L131.009 40.0198V43.6156H124.876L123.18 34.5596H121.94V43.6156H115.677V14.5829ZM124.419 21.9077H121.94V27.3014H124.419V21.9077Z" fill="white"/>
<path d="M134.989 14.5829H145.428L148.233 40.0198V43.6156H141.97L141.578 37.7558H138.838L138.447 43.6156H132.183V40.0198L134.989 14.5829ZM139.295 30.4976H141.122L140.535 21.8411H139.817L139.295 30.4976Z" fill="white"/>
<path d="M152.474 14.5829H163.369V18.1787L162.391 21.9077H156.258V36.4241H163.369V43.6822H152.474C151.756 43.6822 151.104 43.3493 150.647 42.6834C150.19 42.0175 149.929 41.1519 149.929 40.0864V18.1787C149.929 17.1133 150.19 16.2476 150.647 15.5818C151.104 14.9159 151.691 14.5829 152.474 14.5829Z" fill="white"/>
<path d="M167.937 21.9077H164.153V14.5829H178.18V18.1787L177.201 21.9077H174.2V43.6822H167.937V21.9077Z" fill="white"/>
<path d="M185.944 43.6156H179.68V14.5829H185.944V43.6156Z" fill="white"/>
<path d="M190.511 43.6157L187.314 16.9135V14.5163H193.577L194.882 36.2909H195.6L196.905 14.5163H203.168V16.9135L199.971 43.6157H190.511Z" fill="white"/>
<path d="M217.978 43.6156H204.538V14.5829H217.978V18.1787L217 21.9077H210.867V25.1705H217V32.4287H210.867V36.4241H218.044V43.6156H217.978Z" fill="white"/>
<path d="M219.675 36.3575H225.351V43.6156H219.675V36.3575Z" fill="white"/>
<path d="M228.743 29.2325C228.091 28.5666 227.634 27.9007 227.373 27.1682C227.112 26.4357 227.047 25.5035 227.047 24.3049V18.1787C227.047 17.1133 227.308 16.2476 227.765 15.5818C228.222 14.9159 228.809 14.5829 229.592 14.5829H240.487V18.1787L239.509 21.9077H233.376V23.2395L238.791 28.5C239.443 29.1659 239.9 29.8318 240.161 30.5642C240.422 31.2967 240.487 32.229 240.487 33.4941V40.0864C240.487 41.1519 240.226 42.0175 239.77 42.6834C239.313 43.3493 238.726 43.6822 238.008 43.6822H227.047V36.3575H234.224V34.4264L228.743 29.2325Z" fill="white"/>
<path d="M250.992 14.5829H257.255V43.6822H244.728C244.011 43.6822 243.358 43.3493 242.902 42.6834C242.445 42.0175 242.184 41.1519 242.184 40.0864V14.5829H248.447V36.3575H250.926V14.5829H250.992Z" fill="white"/>
<defs>
<linearGradient id="paint0_linear" x1="82.2051" y1="-6.38813" x2="222.189" y2="78.2563" gradientUnits="userSpaceOnUse">
<stop stop-color="#F8B133"/>
<stop offset="0.1131" stop-color="#3AAA35"/>
<stop offset="0.2387" stop-color="#008E39"/>
<stop offset="0.3794" stop-color="#056734"/>
<stop offset="0.5402" stop-color="#1F71B8"/>
<stop offset="0.701" stop-color="#662681"/>
<stop offset="0.8668" stop-color="#E40D7E"/>
<stop offset="1" stop-color="#BE1823"/>
</linearGradient>
</defs>
</svg>
